<svg width="188" height="184" fill="none" xmlns="http://www.w3.org/2000/svg"><g clip-path="url(#a)"><path d="M173.488 0H87.622c-7.766 0-13.951 6.086-13.951 13.588v69.92h99.674c7.623 0 13.807-6.087 13.807-13.588V13.588C187.296 6.086 181.111 0 173.488 0Z" fill="#92C83E"/><path d="M104.019 48.406c3.733 0 6.76-2.978 6.76-6.652s-3.027-6.652-6.76-6.652c-3.734 0-6.76 2.978-6.76 6.652s3.026 6.652 6.76 6.652ZM130.483 48.406c3.734 0 6.76-2.978 6.76-6.652s-3.026-6.652-6.76-6.652c-3.733 0-6.76 2.978-6.76 6.652s3.027 6.652 6.76 6.652ZM156.948 48.406c3.733 0 6.76-2.978 6.76-6.652s-3.027-6.652-6.76-6.652c-3.733 0-6.76 2.978-6.76 6.652s3.027 6.652 6.76 6.652Z" fill="#fff"/><path d="M14.557 99.643C6.934 99.643.75 105.729.75 113.231v57.04c0 7.501 6.184 13.587 13.807 13.587h85.866c7.623 0 13.808-6.086 13.808-13.587v-70.77H14.557v.142Z" fill="#FBB03B"/><path d="M30.953 148.474c3.734 0 6.76-2.978 6.76-6.652s-3.026-6.653-6.76-6.653c-3.733 0-6.76 2.979-6.76 6.653 0 3.674 3.027 6.652 6.76 6.652ZM57.418 148.474c3.734 0 6.76-2.978 6.76-6.652s-3.026-6.653-6.76-6.653c-3.733 0-6.76 2.979-6.76 6.653 0 3.674 3.027 6.652 6.76 6.652ZM83.882 148.474c3.734 0 6.76-2.978 6.76-6.652s-3.026-6.653-6.76-6.653c-3.733 0-6.76 2.979-6.76 6.653 0 3.674 3.027 6.652 6.76 6.652Z" fill="#fff"/><path d="M57.418 55.483V83.65H28.94C13.119 83.65.318 71.052.318 55.483c0-15.57 12.8-28.166 28.622-28.166 15.821 0 28.478 12.738 28.478 28.166Z" fill="#ED1E79"/><path d="M130.196 127.809V99.643h28.622c15.821 0 28.622 12.597 28.622 28.166s-12.801 28.166-28.622 28.166-28.622-12.738-28.622-28.166Z" fill="#3FA9F5"/></g><defs><clipPath id="a"><path fill="#fff" transform="translate(.318)" d="M0 0h186.978v184H0z"/></clipPath></defs></svg>